<mxfile host="65bd71144e">
    <diagram id="GxbLij2EjVwnV86i-2Z7" name="Page-1">
        <mxGraphModel dx="2024" dy="1230" grid="1" gridSize="10" guides="1" tooltips="1" connect="1" arrows="1" fold="1" page="1" pageScale="1" pageWidth="827" pageHeight="1169" math="0" shadow="0">
            <root>
                <mxCell id="0"/>
                <mxCell id="1" parent="0"/>
                <mxCell id="27" value="&lt;span dir=&quot;ltr&quot; style=&quot;padding: 0px ; margin: 0px ; color: rgba(0 , 0 , 0 , 0) ; position: absolute ; cursor: text ; transform-origin: 0% 0% ; background-color: rgb(255 , 255 , 255) ; left: 72.2455px ; top: 341.476px ; font-size: 11.9608px ; font-family: sans-serif ; transform: scalex(0.892815)&quot;&gt;500&amp;nbsp;&lt;/span&gt;&lt;span dir=&quot;ltr&quot; style=&quot;padding: 0px ; margin: 0px ; color: rgba(0 , 0 , 0 , 0) ; position: absolute ; cursor: text ; transform-origin: 0% 0% ; background-color: rgb(255 , 255 , 255) ; left: 72.2455px ; top: 341.476px ; font-size: 11.9608px ; font-family: sans-serif ; transform: scalex(0.892815)&quot;&gt;&lt;br&gt;&lt;/span&gt;&lt;div&gt;&lt;div&gt;&lt;div&gt;&lt;div&gt;&lt;div&gt;&lt;div&gt;&lt;div&gt;&lt;span class=&quot;markedContent&quot; style=&quot;padding: 0px ; margin: 0px ; color: rgba(0 , 0 , 0 , 0) ; position: absolute ; cursor: text ; transform-origin: 0% 0% ; font-family: &amp;#34;arial&amp;#34; ; font-size: 16px ; background-color: rgb(255 , 255 , 255)&quot;&gt;&lt;/span&gt;&lt;/div&gt;&lt;span class=&quot;markedContent&quot; style=&quot;padding: 0px ; margin: 0px ; color: rgba(0 , 0 , 0 , 0) ; position: absolute ; cursor: text ; transform-origin: 0% 0% ; font-family: &amp;#34;arial&amp;#34; ; font-size: 16px ; background-color: rgb(255 , 255 , 255)&quot;&gt;&lt;/span&gt;&lt;/div&gt;&lt;span class=&quot;markedContent&quot; style=&quot;padding: 0px ; margin: 0px ; color: rgba(0 , 0 , 0 , 0) ; position: absolute ; cursor: text ; transform-origin: 0% 0% ; font-family: &amp;#34;arial&amp;#34; ; font-size: 16px ; background-color: rgb(255 , 255 , 255)&quot;&gt;&lt;/span&gt;&lt;/div&gt;&lt;span class=&quot;markedContent&quot; style=&quot;padding: 0px ; margin: 0px ; color: rgba(0 , 0 , 0 , 0) ; position: absolute ; cursor: text ; transform-origin: 0% 0% ; font-family: &amp;#34;arial&amp;#34; ; font-size: 16px ; background-color: rgb(255 , 255 , 255)&quot;&gt;&lt;/span&gt;&lt;/div&gt;&lt;span class=&quot;markedContent&quot; style=&quot;padding: 0px ; margin: 0px ; color: rgba(0 , 0 , 0 , 0) ; position: absolute ; cursor: text ; transform-origin: 0% 0% ; font-family: &amp;#34;arial&amp;#34; ; font-size: 16px ; background-color: rgb(255 , 255 , 255)&quot;&gt;&lt;/span&gt;&lt;/div&gt;&lt;span class=&quot;markedContent&quot; style=&quot;padding: 0px ; margin: 0px ; color: rgba(0 , 0 , 0 , 0) ; position: absolute ; cursor: text ; transform-origin: 0% 0% ; font-family: &amp;#34;arial&amp;#34; ; font-size: 16px ; background-color: rgb(255 , 255 , 255)&quot;&gt;&lt;/span&gt;&lt;/div&gt;&lt;span class=&quot;markedContent&quot; style=&quot;padding: 0px ; margin: 0px ; color: rgba(0 , 0 , 0 , 0) ; position: absolute ; cursor: text ; transform-origin: 0% 0% ; font-family: &amp;#34;arial&amp;#34; ; font-size: 16px ; background-color: rgb(255 , 255 , 255)&quot;&gt;&lt;/span&gt;&lt;/div&gt;&lt;span class=&quot;markedContent&quot; style=&quot;padding: 0px ; margin: 0px ; color: rgba(0 , 0 , 0 , 0) ; position: absolute ; cursor: text ; transform-origin: 0% 0% ; font-family: &amp;#34;arial&amp;#34; ; font-size: 16px ; background-color: rgb(255 , 255 , 255)&quot;&gt;&lt;/span&gt;" style="text;html=1;align=center;verticalAlign=middle;resizable=0;points=[];autosize=1;strokeColor=none;fillColor=none;" parent="1" vertex="1">
                    <mxGeometry x="113.5" y="45" width="20" height="10" as="geometry"/>
                </mxCell>
                <mxCell id="56" value="" style="edgeStyle=none;html=1;" parent="1" source="57" target="61" edge="1">
                    <mxGeometry relative="1" as="geometry"/>
                </mxCell>
                <mxCell id="57" value="200" style="rounded=0;whiteSpace=wrap;html=1;" parent="1" vertex="1">
                    <mxGeometry x="304" y="90" width="70" height="60" as="geometry"/>
                </mxCell>
                <mxCell id="59" value="" style="rounded=0;whiteSpace=wrap;html=1;" parent="1" vertex="1">
                    <mxGeometry x="371" y="90" width="13" height="60" as="geometry"/>
                </mxCell>
                <mxCell id="61" value="" style="whiteSpace=wrap;html=1;rounded=0;" parent="1" vertex="1">
                    <mxGeometry x="294" y="90" width="10" height="60" as="geometry"/>
                </mxCell>
                <mxCell id="62" value="" style="whiteSpace=wrap;html=1;" parent="1" vertex="1">
                    <mxGeometry x="384" y="90" width="60" height="60" as="geometry"/>
                </mxCell>
                <mxCell id="63" value="" style="whiteSpace=wrap;html=1;" parent="1" vertex="1">
                    <mxGeometry x="444" y="90" width="10" height="60" as="geometry"/>
                </mxCell>
                <mxCell id="64" value="" style="shape=flexArrow;endArrow=classic;html=1;" parent="1" edge="1">
                    <mxGeometry width="50" height="50" relative="1" as="geometry">
                        <mxPoint x="377" y="160" as="sourcePoint"/>
                        <mxPoint x="377" y="240" as="targetPoint"/>
                    </mxGeometry>
                </mxCell>
                <mxCell id="78" value="" style="edgeStyle=none;html=1;" parent="1" source="79" target="83" edge="1">
                    <mxGeometry relative="1" as="geometry"/>
                </mxCell>
                <mxCell id="79" value="100" style="rounded=0;whiteSpace=wrap;html=1;" parent="1" vertex="1">
                    <mxGeometry x="297.5" y="260" width="70" height="60" as="geometry"/>
                </mxCell>
                <mxCell id="81" value="" style="rounded=0;whiteSpace=wrap;html=1;" parent="1" vertex="1">
                    <mxGeometry x="364.5" y="260" width="13" height="60" as="geometry"/>
                </mxCell>
                <mxCell id="83" value="" style="whiteSpace=wrap;html=1;rounded=0;" parent="1" vertex="1">
                    <mxGeometry x="287.5" y="260" width="10" height="60" as="geometry"/>
                </mxCell>
                <mxCell id="84" value="200" style="whiteSpace=wrap;html=1;" parent="1" vertex="1">
                    <mxGeometry x="377.5" y="260" width="60" height="60" as="geometry"/>
                </mxCell>
                <mxCell id="85" value="" style="whiteSpace=wrap;html=1;" parent="1" vertex="1">
                    <mxGeometry x="437.5" y="260" width="10" height="60" as="geometry"/>
                </mxCell>
                <mxCell id="88" value="" style="shape=flexArrow;endArrow=classic;html=1;" parent="1" edge="1">
                    <mxGeometry width="50" height="50" relative="1" as="geometry">
                        <mxPoint x="371" y="330" as="sourcePoint"/>
                        <mxPoint x="371" y="410" as="targetPoint"/>
                    </mxGeometry>
                </mxCell>
                <mxCell id="89" value="" style="edgeStyle=none;html=1;" parent="1" source="90" target="93" edge="1">
                    <mxGeometry relative="1" as="geometry"/>
                </mxCell>
                <mxCell id="90" value="100" style="rounded=0;whiteSpace=wrap;html=1;" parent="1" vertex="1">
                    <mxGeometry x="190" y="535" width="70" height="60" as="geometry"/>
                </mxCell>
                <mxCell id="91" value="" style="edgeStyle=none;html=1;" parent="1" source="92" target="95" edge="1">
                    <mxGeometry relative="1" as="geometry"/>
                </mxCell>
                <mxCell id="92" value="" style="rounded=0;whiteSpace=wrap;html=1;" parent="1" vertex="1">
                    <mxGeometry x="257" y="535" width="13" height="60" as="geometry"/>
                </mxCell>
                <mxCell id="93" value="" style="whiteSpace=wrap;html=1;rounded=0;" parent="1" vertex="1">
                    <mxGeometry x="180" y="535" width="10" height="60" as="geometry"/>
                </mxCell>
                <mxCell id="94" value="" style="whiteSpace=wrap;html=1;" parent="1" vertex="1">
                    <mxGeometry x="270" y="535" width="60" height="60" as="geometry"/>
                </mxCell>
                <mxCell id="95" value="" style="whiteSpace=wrap;html=1;" parent="1" vertex="1">
                    <mxGeometry x="330" y="535" width="10" height="60" as="geometry"/>
                </mxCell>
                <mxCell id="96" value="" style="edgeStyle=none;html=1;" parent="1" source="97" target="99" edge="1">
                    <mxGeometry relative="1" as="geometry"/>
                </mxCell>
                <mxCell id="97" value="300" style="rounded=0;whiteSpace=wrap;html=1;" parent="1" vertex="1">
                    <mxGeometry x="376" y="535" width="70" height="60" as="geometry"/>
                </mxCell>
                <mxCell id="98" value="" style="rounded=0;whiteSpace=wrap;html=1;" parent="1" vertex="1">
                    <mxGeometry x="443" y="535" width="13" height="60" as="geometry"/>
                </mxCell>
                <mxCell id="99" value="" style="whiteSpace=wrap;html=1;rounded=0;" parent="1" vertex="1">
                    <mxGeometry x="366" y="535" width="10" height="60" as="geometry"/>
                </mxCell>
                <mxCell id="100" value="" style="whiteSpace=wrap;html=1;" parent="1" vertex="1">
                    <mxGeometry x="456" y="535" width="60" height="60" as="geometry"/>
                </mxCell>
                <mxCell id="101" value="" style="whiteSpace=wrap;html=1;" parent="1" vertex="1">
                    <mxGeometry x="516" y="535" width="10" height="60" as="geometry"/>
                </mxCell>
                <mxCell id="102" value="" style="edgeStyle=none;html=1;" parent="1" source="103" target="107" edge="1">
                    <mxGeometry relative="1" as="geometry"/>
                </mxCell>
                <mxCell id="103" value="200" style="rounded=0;whiteSpace=wrap;html=1;" parent="1" vertex="1">
                    <mxGeometry x="350" y="425" width="70" height="60" as="geometry"/>
                </mxCell>
                <mxCell id="104" style="edgeStyle=none;html=1;exitX=0.5;exitY=1;exitDx=0;exitDy=0;entryX=0.5;entryY=0;entryDx=0;entryDy=0;" parent="1" source="105" target="98" edge="1">
                    <mxGeometry relative="1" as="geometry"/>
                </mxCell>
                <mxCell id="105" value="" style="rounded=0;whiteSpace=wrap;html=1;" parent="1" vertex="1">
                    <mxGeometry x="417" y="425" width="13" height="60" as="geometry"/>
                </mxCell>
                <mxCell id="106" style="edgeStyle=none;html=1;exitX=0.25;exitY=1;exitDx=0;exitDy=0;entryX=0.5;entryY=0;entryDx=0;entryDy=0;" parent="1" source="107" target="92" edge="1">
                    <mxGeometry relative="1" as="geometry"/>
                </mxCell>
                <mxCell id="107" value="" style="whiteSpace=wrap;html=1;rounded=0;" parent="1" vertex="1">
                    <mxGeometry x="340" y="425" width="10" height="60" as="geometry"/>
                </mxCell>
                <mxCell id="108" value="" style="whiteSpace=wrap;html=1;" parent="1" vertex="1">
                    <mxGeometry x="430" y="425" width="60" height="60" as="geometry"/>
                </mxCell>
                <mxCell id="109" value="" style="whiteSpace=wrap;html=1;" parent="1" vertex="1">
                    <mxGeometry x="490" y="425" width="10" height="60" as="geometry"/>
                </mxCell>
                <mxCell id="131" value="" style="shape=flexArrow;endArrow=classic;html=1;" parent="1" edge="1">
                    <mxGeometry width="50" height="50" relative="1" as="geometry">
                        <mxPoint x="364.5" y="600" as="sourcePoint"/>
                        <mxPoint x="365" y="670" as="targetPoint"/>
                    </mxGeometry>
                </mxCell>
                <mxCell id="133" value="200, 100, 300, 50, 150, 120&amp;nbsp;" style="text;html=1;align=center;verticalAlign=middle;resizable=0;points=[];autosize=1;strokeColor=none;fillColor=none;" parent="1" vertex="1">
                    <mxGeometry x="25" y="60" width="170" height="20" as="geometry"/>
                </mxCell>
                <mxCell id="141" value="" style="edgeStyle=none;html=1;" parent="1" source="142" target="145" edge="1">
                    <mxGeometry relative="1" as="geometry"/>
                </mxCell>
                <mxCell id="142" value="50" style="rounded=0;whiteSpace=wrap;html=1;" parent="1" vertex="1">
                    <mxGeometry x="160" y="1050" width="70" height="60" as="geometry"/>
                </mxCell>
                <mxCell id="143" value="" style="edgeStyle=none;html=1;" parent="1" source="144" target="147" edge="1">
                    <mxGeometry relative="1" as="geometry"/>
                </mxCell>
                <mxCell id="144" value="" style="rounded=0;whiteSpace=wrap;html=1;" parent="1" vertex="1">
                    <mxGeometry x="227" y="1050" width="13" height="60" as="geometry"/>
                </mxCell>
                <mxCell id="145" value="" style="whiteSpace=wrap;html=1;rounded=0;" parent="1" vertex="1">
                    <mxGeometry x="150" y="1050" width="10" height="60" as="geometry"/>
                </mxCell>
                <mxCell id="146" value="" style="whiteSpace=wrap;html=1;" parent="1" vertex="1">
                    <mxGeometry x="240" y="1050" width="60" height="60" as="geometry"/>
                </mxCell>
                <mxCell id="147" value="" style="whiteSpace=wrap;html=1;" parent="1" vertex="1">
                    <mxGeometry x="300" y="1050" width="10" height="60" as="geometry"/>
                </mxCell>
                <mxCell id="148" value="" style="edgeStyle=none;html=1;" parent="1" source="149" target="151" edge="1">
                    <mxGeometry relative="1" as="geometry"/>
                </mxCell>
                <mxCell id="149" value="300" style="rounded=0;whiteSpace=wrap;html=1;" parent="1" vertex="1">
                    <mxGeometry x="486" y="1050" width="70" height="60" as="geometry"/>
                </mxCell>
                <mxCell id="150" value="" style="rounded=0;whiteSpace=wrap;html=1;" parent="1" vertex="1">
                    <mxGeometry x="553" y="1050" width="13" height="60" as="geometry"/>
                </mxCell>
                <mxCell id="151" value="" style="whiteSpace=wrap;html=1;rounded=0;" parent="1" vertex="1">
                    <mxGeometry x="476" y="1050" width="10" height="60" as="geometry"/>
                </mxCell>
                <mxCell id="152" value="" style="whiteSpace=wrap;html=1;" parent="1" vertex="1">
                    <mxGeometry x="566" y="1050" width="60" height="60" as="geometry"/>
                </mxCell>
                <mxCell id="153" value="" style="whiteSpace=wrap;html=1;" parent="1" vertex="1">
                    <mxGeometry x="626" y="1050" width="10" height="60" as="geometry"/>
                </mxCell>
                <mxCell id="154" value="" style="edgeStyle=none;html=1;" parent="1" source="155" target="159" edge="1">
                    <mxGeometry relative="1" as="geometry"/>
                </mxCell>
                <mxCell id="155" value="100" style="rounded=0;whiteSpace=wrap;html=1;" parent="1" vertex="1">
                    <mxGeometry x="320" y="940" width="70" height="60" as="geometry"/>
                </mxCell>
                <mxCell id="176" style="edgeStyle=none;html=1;exitX=0.5;exitY=1;exitDx=0;exitDy=0;entryX=0.5;entryY=0;entryDx=0;entryDy=0;" parent="1" source="157" target="170" edge="1">
                    <mxGeometry relative="1" as="geometry"/>
                </mxCell>
                <mxCell id="157" value="" style="rounded=0;whiteSpace=wrap;html=1;" parent="1" vertex="1">
                    <mxGeometry x="387" y="940" width="13" height="60" as="geometry"/>
                </mxCell>
                <mxCell id="158" style="edgeStyle=none;html=1;exitX=0.25;exitY=1;exitDx=0;exitDy=0;entryX=0.5;entryY=0;entryDx=0;entryDy=0;" parent="1" source="159" target="144" edge="1">
                    <mxGeometry relative="1" as="geometry"/>
                </mxCell>
                <mxCell id="159" value="" style="whiteSpace=wrap;html=1;rounded=0;" parent="1" vertex="1">
                    <mxGeometry x="310" y="940" width="10" height="60" as="geometry"/>
                </mxCell>
                <mxCell id="160" value="200" style="whiteSpace=wrap;html=1;" parent="1" vertex="1">
                    <mxGeometry x="400" y="940" width="60" height="60" as="geometry"/>
                </mxCell>
                <mxCell id="175" style="edgeStyle=none;html=1;exitX=0.5;exitY=1;exitDx=0;exitDy=0;entryX=0.5;entryY=0;entryDx=0;entryDy=0;" parent="1" source="161" target="150" edge="1">
                    <mxGeometry relative="1" as="geometry"/>
                </mxCell>
                <mxCell id="161" value="" style="whiteSpace=wrap;html=1;" parent="1" vertex="1">
                    <mxGeometry x="460" y="940" width="10" height="60" as="geometry"/>
                </mxCell>
                <mxCell id="168" value="" style="edgeStyle=none;html=1;" parent="1" source="169" target="171" edge="1">
                    <mxGeometry relative="1" as="geometry"/>
                </mxCell>
                <mxCell id="169" value="150" style="rounded=0;whiteSpace=wrap;html=1;" parent="1" vertex="1">
                    <mxGeometry x="323.5" y="1050" width="70" height="60" as="geometry"/>
                </mxCell>
                <mxCell id="170" value="" style="rounded=0;whiteSpace=wrap;html=1;" parent="1" vertex="1">
                    <mxGeometry x="390.5" y="1050" width="13" height="60" as="geometry"/>
                </mxCell>
                <mxCell id="171" value="" style="whiteSpace=wrap;html=1;rounded=0;" parent="1" vertex="1">
                    <mxGeometry x="313.5" y="1050" width="10" height="60" as="geometry"/>
                </mxCell>
                <mxCell id="172" value="" style="whiteSpace=wrap;html=1;" parent="1" vertex="1">
                    <mxGeometry x="403.5" y="1050" width="60" height="60" as="geometry"/>
                </mxCell>
                <mxCell id="173" value="" style="whiteSpace=wrap;html=1;" parent="1" vertex="1">
                    <mxGeometry x="463.5" y="1050" width="10" height="60" as="geometry"/>
                </mxCell>
                <mxCell id="177" value="" style="edgeStyle=none;html=1;" parent="1" source="178" target="181" edge="1">
                    <mxGeometry relative="1" as="geometry"/>
                </mxCell>
                <mxCell id="178" value="50" style="rounded=0;whiteSpace=wrap;html=1;" parent="1" vertex="1">
                    <mxGeometry x="704" y="1050" width="70" height="60" as="geometry"/>
                </mxCell>
                <mxCell id="179" value="" style="edgeStyle=none;html=1;" parent="1" source="180" target="183" edge="1">
                    <mxGeometry relative="1" as="geometry"/>
                </mxCell>
                <mxCell id="180" value="" style="rounded=0;whiteSpace=wrap;html=1;" parent="1" vertex="1">
                    <mxGeometry x="771" y="1050" width="13" height="60" as="geometry"/>
                </mxCell>
                <mxCell id="181" value="" style="whiteSpace=wrap;html=1;rounded=0;" parent="1" vertex="1">
                    <mxGeometry x="694" y="1050" width="10" height="60" as="geometry"/>
                </mxCell>
                <mxCell id="182" value="" style="whiteSpace=wrap;html=1;" parent="1" vertex="1">
                    <mxGeometry x="784" y="1050" width="60" height="60" as="geometry"/>
                </mxCell>
                <mxCell id="183" value="" style="whiteSpace=wrap;html=1;" parent="1" vertex="1">
                    <mxGeometry x="844" y="1050" width="10" height="60" as="geometry"/>
                </mxCell>
                <mxCell id="184" value="" style="edgeStyle=none;html=1;" parent="1" source="185" target="187" edge="1">
                    <mxGeometry relative="1" as="geometry"/>
                </mxCell>
                <mxCell id="185" value="300" style="rounded=0;whiteSpace=wrap;html=1;" parent="1" vertex="1">
                    <mxGeometry x="1030" y="1050" width="70" height="60" as="geometry"/>
                </mxCell>
                <mxCell id="186" value="" style="rounded=0;whiteSpace=wrap;html=1;" parent="1" vertex="1">
                    <mxGeometry x="1097" y="1050" width="13" height="60" as="geometry"/>
                </mxCell>
                <mxCell id="187" value="" style="whiteSpace=wrap;html=1;rounded=0;" parent="1" vertex="1">
                    <mxGeometry x="1020" y="1050" width="10" height="60" as="geometry"/>
                </mxCell>
                <mxCell id="188" value="" style="whiteSpace=wrap;html=1;" parent="1" vertex="1">
                    <mxGeometry x="1110" y="1050" width="60" height="60" as="geometry"/>
                </mxCell>
                <mxCell id="189" value="" style="whiteSpace=wrap;html=1;" parent="1" vertex="1">
                    <mxGeometry x="1170" y="1050" width="10" height="60" as="geometry"/>
                </mxCell>
                <mxCell id="190" value="" style="edgeStyle=none;html=1;" parent="1" source="191" target="195" edge="1">
                    <mxGeometry relative="1" as="geometry"/>
                </mxCell>
                <mxCell id="191" value="100" style="rounded=0;whiteSpace=wrap;html=1;" parent="1" vertex="1">
                    <mxGeometry x="864" y="940" width="70" height="60" as="geometry"/>
                </mxCell>
                <mxCell id="192" style="edgeStyle=none;html=1;exitX=0.5;exitY=1;exitDx=0;exitDy=0;entryX=0.5;entryY=0;entryDx=0;entryDy=0;" parent="1" source="193" target="201" edge="1">
                    <mxGeometry relative="1" as="geometry"/>
                </mxCell>
                <mxCell id="193" value="" style="rounded=0;whiteSpace=wrap;html=1;" parent="1" vertex="1">
                    <mxGeometry x="931" y="940" width="13" height="60" as="geometry"/>
                </mxCell>
                <mxCell id="194" style="edgeStyle=none;html=1;exitX=0.25;exitY=1;exitDx=0;exitDy=0;entryX=0.5;entryY=0;entryDx=0;entryDy=0;" parent="1" source="195" target="180" edge="1">
                    <mxGeometry relative="1" as="geometry"/>
                </mxCell>
                <mxCell id="195" value="" style="whiteSpace=wrap;html=1;rounded=0;" parent="1" vertex="1">
                    <mxGeometry x="854" y="940" width="10" height="60" as="geometry"/>
                </mxCell>
                <mxCell id="196" value="200" style="whiteSpace=wrap;html=1;" parent="1" vertex="1">
                    <mxGeometry x="944" y="940" width="60" height="60" as="geometry"/>
                </mxCell>
                <mxCell id="197" style="edgeStyle=none;html=1;exitX=0.5;exitY=1;exitDx=0;exitDy=0;entryX=0.5;entryY=0;entryDx=0;entryDy=0;" parent="1" source="198" target="186" edge="1">
                    <mxGeometry relative="1" as="geometry"/>
                </mxCell>
                <mxCell id="198" value="" style="whiteSpace=wrap;html=1;" parent="1" vertex="1">
                    <mxGeometry x="1004" y="940" width="10" height="60" as="geometry"/>
                </mxCell>
                <mxCell id="199" value="" style="edgeStyle=none;html=1;" parent="1" source="200" target="202" edge="1">
                    <mxGeometry relative="1" as="geometry"/>
                </mxCell>
                <mxCell id="200" value="120" style="rounded=0;whiteSpace=wrap;html=1;" parent="1" vertex="1">
                    <mxGeometry x="867.5" y="1050" width="70" height="60" as="geometry"/>
                </mxCell>
                <mxCell id="201" value="" style="rounded=0;whiteSpace=wrap;html=1;" parent="1" vertex="1">
                    <mxGeometry x="934.5" y="1050" width="13" height="60" as="geometry"/>
                </mxCell>
                <mxCell id="202" value="" style="whiteSpace=wrap;html=1;rounded=0;" parent="1" vertex="1">
                    <mxGeometry x="857.5" y="1050" width="10" height="60" as="geometry"/>
                </mxCell>
                <mxCell id="203" value="150" style="whiteSpace=wrap;html=1;" parent="1" vertex="1">
                    <mxGeometry x="947.5" y="1050" width="60" height="60" as="geometry"/>
                </mxCell>
                <mxCell id="204" value="" style="whiteSpace=wrap;html=1;" parent="1" vertex="1">
                    <mxGeometry x="1007.5" y="1050" width="10" height="60" as="geometry"/>
                </mxCell>
                <mxCell id="205" value="" style="shape=flexArrow;endArrow=classic;html=1;" parent="1" edge="1">
                    <mxGeometry width="50" height="50" relative="1" as="geometry">
                        <mxPoint x="630.2900000000001" y="980" as="sourcePoint"/>
                        <mxPoint x="704" y="980" as="targetPoint"/>
                    </mxGeometry>
                </mxCell>
                <mxCell id="212" value="" style="edgeStyle=none;html=1;" parent="1" source="213" target="216" edge="1">
                    <mxGeometry relative="1" as="geometry"/>
                </mxCell>
                <mxCell id="213" value="50" style="rounded=0;whiteSpace=wrap;html=1;" parent="1" vertex="1">
                    <mxGeometry x="208" y="800" width="70" height="60" as="geometry"/>
                </mxCell>
                <mxCell id="214" value="" style="edgeStyle=none;html=1;" parent="1" source="215" target="218" edge="1">
                    <mxGeometry relative="1" as="geometry"/>
                </mxCell>
                <mxCell id="215" value="" style="rounded=0;whiteSpace=wrap;html=1;" parent="1" vertex="1">
                    <mxGeometry x="275" y="800" width="13" height="60" as="geometry"/>
                </mxCell>
                <mxCell id="216" value="" style="whiteSpace=wrap;html=1;rounded=0;" parent="1" vertex="1">
                    <mxGeometry x="198" y="800" width="10" height="60" as="geometry"/>
                </mxCell>
                <mxCell id="217" value="100" style="whiteSpace=wrap;html=1;" parent="1" vertex="1">
                    <mxGeometry x="288" y="800" width="60" height="60" as="geometry"/>
                </mxCell>
                <mxCell id="218" value="" style="whiteSpace=wrap;html=1;" parent="1" vertex="1">
                    <mxGeometry x="348" y="800" width="10" height="60" as="geometry"/>
                </mxCell>
                <mxCell id="219" value="" style="edgeStyle=none;html=1;" parent="1" source="220" target="222" edge="1">
                    <mxGeometry relative="1" as="geometry"/>
                </mxCell>
                <mxCell id="220" value="300" style="rounded=0;whiteSpace=wrap;html=1;" parent="1" vertex="1">
                    <mxGeometry x="394" y="800" width="70" height="60" as="geometry"/>
                </mxCell>
                <mxCell id="221" value="" style="rounded=0;whiteSpace=wrap;html=1;" parent="1" vertex="1">
                    <mxGeometry x="461" y="800" width="13" height="60" as="geometry"/>
                </mxCell>
                <mxCell id="222" value="" style="whiteSpace=wrap;html=1;rounded=0;" parent="1" vertex="1">
                    <mxGeometry x="384" y="800" width="10" height="60" as="geometry"/>
                </mxCell>
                <mxCell id="223" value="" style="whiteSpace=wrap;html=1;" parent="1" vertex="1">
                    <mxGeometry x="474" y="800" width="60" height="60" as="geometry"/>
                </mxCell>
                <mxCell id="224" value="" style="whiteSpace=wrap;html=1;" parent="1" vertex="1">
                    <mxGeometry x="534" y="800" width="10" height="60" as="geometry"/>
                </mxCell>
                <mxCell id="225" value="" style="edgeStyle=none;html=1;" parent="1" source="226" target="230" edge="1">
                    <mxGeometry relative="1" as="geometry"/>
                </mxCell>
                <mxCell id="226" value="200" style="rounded=0;whiteSpace=wrap;html=1;" parent="1" vertex="1">
                    <mxGeometry x="368" y="690" width="70" height="60" as="geometry"/>
                </mxCell>
                <mxCell id="227" style="edgeStyle=none;html=1;exitX=0.5;exitY=1;exitDx=0;exitDy=0;entryX=0.5;entryY=0;entryDx=0;entryDy=0;" parent="1" source="228" target="221" edge="1">
                    <mxGeometry relative="1" as="geometry"/>
                </mxCell>
                <mxCell id="228" value="" style="rounded=0;whiteSpace=wrap;html=1;" parent="1" vertex="1">
                    <mxGeometry x="435" y="690" width="13" height="60" as="geometry"/>
                </mxCell>
                <mxCell id="229" style="edgeStyle=none;html=1;exitX=0.25;exitY=1;exitDx=0;exitDy=0;entryX=0.5;entryY=0;entryDx=0;entryDy=0;" parent="1" source="230" target="215" edge="1">
                    <mxGeometry relative="1" as="geometry"/>
                </mxCell>
                <mxCell id="230" value="" style="whiteSpace=wrap;html=1;rounded=0;" parent="1" vertex="1">
                    <mxGeometry x="358" y="690" width="10" height="60" as="geometry"/>
                </mxCell>
                <mxCell id="231" value="" style="whiteSpace=wrap;html=1;" parent="1" vertex="1">
                    <mxGeometry x="448" y="690" width="60" height="60" as="geometry"/>
                </mxCell>
                <mxCell id="232" value="" style="whiteSpace=wrap;html=1;" parent="1" vertex="1">
                    <mxGeometry x="508" y="690" width="10" height="60" as="geometry"/>
                </mxCell>
                <mxCell id="233" value="" style="shape=flexArrow;endArrow=classic;html=1;" parent="1" edge="1">
                    <mxGeometry width="50" height="50" relative="1" as="geometry">
                        <mxPoint x="370.65999999999997" y="870" as="sourcePoint"/>
                        <mxPoint x="370.65999999999997" y="930" as="targetPoint"/>
                    </mxGeometry>
                </mxCell>
                <mxCell id="237" value="&lt;font style=&quot;font-size: 15px&quot;&gt;200- Ao inserir o 200, como a árvore ainda não possie raiz, será criado &lt;br&gt;um nó que será a raiz e 200 será colocado no item 1 desse nó&lt;/font&gt;" style="text;html=1;align=center;verticalAlign=middle;resizable=0;points=[];autosize=1;strokeColor=none;fillColor=none;strokeWidth=4;" vertex="1" parent="1">
                    <mxGeometry x="607" y="105" width="490" height="40" as="geometry"/>
                </mxCell>
                <mxCell id="240" value="&lt;span style=&quot;color: rgb(240 , 240 , 240) ; font-family: &amp;#34;helvetica&amp;#34; ; font-size: 15px ; font-style: normal ; font-weight: 400 ; letter-spacing: normal ; text-align: center ; text-indent: 0px ; text-transform: none ; word-spacing: 0px ; background-color: rgb(42 , 42 , 42) ; display: inline ; float: none&quot;&gt;100- Como a raiz é folha, não nula, e o 100 é menor que o valor na&lt;/span&gt;&lt;br style=&quot;color: rgb(240 , 240 , 240) ; font-family: &amp;#34;helvetica&amp;#34; ; font-size: 15px ; font-style: normal ; font-weight: 400 ; letter-spacing: normal ; text-align: center ; text-indent: 0px ; text-transform: none ; word-spacing: 0px ; background-color: rgb(42 , 42 , 42)&quot;&gt;&lt;span style=&quot;color: rgb(240 , 240 , 240) ; font-family: &amp;#34;helvetica&amp;#34; ; font-size: 15px ; font-style: normal ; font-weight: 400 ; letter-spacing: normal ; text-align: center ; text-indent: 0px ; text-transform: none ; word-spacing: 0px ; background-color: rgb(42 , 42 , 42) ; display: inline ; float: none&quot;&gt;&amp;nbsp;posição 1 então ele vai ser colocado na posição 1.&lt;/span&gt;" style="text;whiteSpace=wrap;html=1;" vertex="1" parent="1">
                    <mxGeometry x="600" y="265" width="470" height="50" as="geometry"/>
                </mxCell>
                <mxCell id="241" value="&lt;span style=&quot;color: rgb(240 , 240 , 240) ; font-family: &amp;#34;helvetica&amp;#34; ; font-size: 15px ; font-style: normal ; font-weight: 400 ; letter-spacing: normal ; text-align: center ; text-indent: 0px ; text-transform: none ; word-spacing: 0px ; background-color: rgb(42 , 42 , 42) ; display: inline ; float: none&quot;&gt;300- A raiz é folha, porém não possue espaços vazios, então terá uma&lt;/span&gt;&lt;br style=&quot;color: rgb(240 , 240 , 240) ; font-family: &amp;#34;helvetica&amp;#34; ; font-size: 15px ; font-style: normal ; font-weight: 400 ; letter-spacing: normal ; text-align: center ; text-indent: 0px ; text-transform: none ; word-spacing: 0px ; background-color: rgb(42 , 42 , 42)&quot;&gt;&lt;span style=&quot;color: rgb(240 , 240 , 240) ; font-family: &amp;#34;helvetica&amp;#34; ; font-size: 15px ; font-style: normal ; font-weight: 400 ; letter-spacing: normal ; text-align: center ; text-indent: 0px ; text-transform: none ; word-spacing: 0px ; background-color: rgb(42 , 42 , 42) ; display: inline ; float: none&quot;&gt;&amp;nbsp;quebra de nó em que o 200 sobe, e o 300 é colocado em um novo nó.&lt;/span&gt;&lt;br style=&quot;color: rgb(240 , 240 , 240) ; font-family: &amp;#34;helvetica&amp;#34; ; font-size: 15px ; font-style: normal ; font-weight: 400 ; letter-spacing: normal ; text-align: center ; text-indent: 0px ; text-transform: none ; word-spacing: 0px ; background-color: rgb(42 , 42 , 42)&quot;&gt;&lt;span style=&quot;color: rgb(240 , 240 , 240) ; font-family: &amp;#34;helvetica&amp;#34; ; font-size: 15px ; font-style: normal ; font-weight: 400 ; letter-spacing: normal ; text-align: center ; text-indent: 0px ; text-transform: none ; word-spacing: 0px ; background-color: rgb(42 , 42 , 42) ; display: inline ; float: none&quot;&gt;Como a raíz da árvore não possui pai será criado um nó para o 200 em&amp;nbsp;&lt;/span&gt;&lt;br style=&quot;color: rgb(240 , 240 , 240) ; font-family: &amp;#34;helvetica&amp;#34; ; font-size: 15px ; font-style: normal ; font-weight: 400 ; letter-spacing: normal ; text-align: center ; text-indent: 0px ; text-transform: none ; word-spacing: 0px ; background-color: rgb(42 , 42 , 42)&quot;&gt;&lt;span style=&quot;color: rgb(240 , 240 , 240) ; font-family: &amp;#34;helvetica&amp;#34; ; font-size: 15px ; font-style: normal ; font-weight: 400 ; letter-spacing: normal ; text-align: center ; text-indent: 0px ; text-transform: none ; word-spacing: 0px ; background-color: rgb(42 , 42 , 42) ; display: inline ; float: none&quot;&gt;que a esqueda dele apontará para o nó do 100 e o centro apontará para&amp;nbsp;&lt;/span&gt;&lt;br style=&quot;color: rgb(240 , 240 , 240) ; font-family: &amp;#34;helvetica&amp;#34; ; font-size: 15px ; font-style: normal ; font-weight: 400 ; letter-spacing: normal ; text-align: center ; text-indent: 0px ; text-transform: none ; word-spacing: 0px ; background-color: rgb(42 , 42 , 42)&quot;&gt;&lt;span style=&quot;color: rgb(240 , 240 , 240) ; font-family: &amp;#34;helvetica&amp;#34; ; font-size: 15px ; font-style: normal ; font-weight: 400 ; letter-spacing: normal ; text-align: center ; text-indent: 0px ; text-transform: none ; word-spacing: 0px ; background-color: rgb(42 , 42 , 42) ; display: inline ; float: none&quot;&gt;&amp;nbsp;o nó do 300. ao final retornando o nó do 200 como raiz da árvore.&lt;/span&gt;&lt;span style=&quot;font-style: normal ; font-weight: 400 ; letter-spacing: normal ; text-align: center ; text-indent: 0px ; text-transform: none ; word-spacing: 0px ; background-color: rgb(42 , 42 , 42) ; color: rgba(0 , 0 , 0 , 0) ; font-family: monospace ; font-size: 0px&quot;&gt;%3CmxGraphModel%3E%3Croot%3E%3CmxCell%20id%3D%220%22%2F%3E%3CmxCell%20id%3D%221%22%20parent%3D%220%22%2F%3E%3CmxCell%20id%3D%222%22%20value%3D%22%22%20style%3D%22shape%3DsingleArrow%3BwhiteSpace%3Dwrap%3Bhtml%3D1%3BfontSize%3D15%3BstrokeWidth%3D4%3B%22%20vertex%3D%221%22%20parent%3D%221%22%3E%3CmxGeometry%20x%3D%22510%22%20y%3D%22140%22%20width%3D%2270%22%20height%3D%2230%22%20as%3D%22geometry%22%2F%3E%3C%2FmxCell%3E%3C%2Froot%3E%3C%2FmxGraphModel%3E&lt;/span&gt;" style="text;whiteSpace=wrap;html=1;" vertex="1" parent="1">
                    <mxGeometry x="647.5" y="440" width="510" height="90" as="geometry"/>
                </mxCell>
                <mxCell id="243" value="&lt;span style=&quot;color: rgb(240 , 240 , 240) ; font-family: &amp;#34;helvetica&amp;#34; ; font-size: 15px ; font-style: normal ; font-weight: 400 ; letter-spacing: normal ; text-align: center ; text-indent: 0px ; text-transform: none ; word-spacing: 0px ; background-color: rgb(42 , 42 , 42) ; display: inline ; float: none&quot;&gt;50- Inicia-se a inserção analisando os nós. O nó raiz não é folha, só tem&lt;/span&gt;&lt;br style=&quot;color: rgb(240 , 240 , 240) ; font-family: &amp;#34;helvetica&amp;#34; ; font-size: 15px ; font-style: normal ; font-weight: 400 ; letter-spacing: normal ; text-align: center ; text-indent: 0px ; text-transform: none ; word-spacing: 0px ; background-color: rgb(42 , 42 , 42)&quot;&gt;&lt;span style=&quot;color: rgb(240 , 240 , 240) ; font-family: &amp;#34;helvetica&amp;#34; ; font-size: 15px ; font-style: normal ; font-weight: 400 ; letter-spacing: normal ; text-align: center ; text-indent: 0px ; text-transform: none ; word-spacing: 0px ; background-color: rgb(42 , 42 , 42) ; display: inline ; float: none&quot;&gt;uma informação e 50 é menor q o valor na posição 1, então passasse para&amp;nbsp;&lt;/span&gt;&lt;br style=&quot;color: rgb(240 , 240 , 240) ; font-family: &amp;#34;helvetica&amp;#34; ; font-size: 15px ; font-style: normal ; font-weight: 400 ; letter-spacing: normal ; text-align: center ; text-indent: 0px ; text-transform: none ; word-spacing: 0px ; background-color: rgb(42 , 42 , 42)&quot;&gt;&lt;span style=&quot;color: rgb(240 , 240 , 240) ; font-family: &amp;#34;helvetica&amp;#34; ; font-size: 15px ; font-style: normal ; font-weight: 400 ; letter-spacing: normal ; text-align: center ; text-indent: 0px ; text-transform: none ; word-spacing: 0px ; background-color: rgb(42 , 42 , 42) ; display: inline ; float: none&quot;&gt;o nó da esquerda. O nó da esquerda é folha e tem espaço vazio, como 120 é menor&amp;nbsp;&lt;/span&gt;&lt;span style=&quot;color: rgb(240 , 240 , 240) ; font-family: &amp;#34;helvetica&amp;#34; ; font-size: 15px ; font-style: normal ; font-weight: 400 ; letter-spacing: normal ; text-align: center ; text-indent: 0px ; text-transform: none ; word-spacing: 0px ; background-color: rgb(42 , 42 , 42) ; display: inline ; float: none&quot;&gt;que o valor na info 1 ele será armazenado na info 1 e o valor da info 1 irá para a info 2.&lt;/span&gt;" style="text;whiteSpace=wrap;html=1;" vertex="1" parent="1">
                    <mxGeometry x="680" y="645" width="550" height="105" as="geometry"/>
                </mxCell>
                <mxCell id="244" value="&lt;span style=&quot;color: rgb(240 , 240 , 240) ; font-style: normal ; font-weight: 400 ; letter-spacing: normal ; text-indent: 0px ; text-transform: none ; word-spacing: 0px ; font-family: &amp;#34;helvetica&amp;#34; ; font-size: 15px ; text-align: center ; background-color: rgb(42 , 42 , 42) ; display: inline ; float: none&quot;&gt;150- Inicia-se a inserção analisando os nós. O nó raiz não é folha, só tem&lt;/span&gt;&lt;br style=&quot;color: rgb(240 , 240 , 240) ; font-style: normal ; font-weight: 400 ; letter-spacing: normal ; text-indent: 0px ; text-transform: none ; word-spacing: 0px ; font-family: &amp;#34;helvetica&amp;#34; ; font-size: 15px ; text-align: center ; background-color: rgb(42 , 42 , 42)&quot;&gt;&lt;span style=&quot;color: rgb(240 , 240 , 240) ; font-style: normal ; font-weight: 400 ; letter-spacing: normal ; text-indent: 0px ; text-transform: none ; word-spacing: 0px ; font-family: &amp;#34;helvetica&amp;#34; ; font-size: 15px ; text-align: center ; background-color: rgb(42 , 42 , 42) ; display: inline ; float: none&quot;&gt;uma informação e 150 é menor q o valor na posição 1, então passasse para&amp;nbsp;&lt;/span&gt;&lt;br style=&quot;color: rgb(240 , 240 , 240) ; font-style: normal ; font-weight: 400 ; letter-spacing: normal ; text-indent: 0px ; text-transform: none ; word-spacing: 0px ; font-family: &amp;#34;helvetica&amp;#34; ; font-size: 15px ; text-align: center ; background-color: rgb(42 , 42 , 42)&quot;&gt;&lt;span style=&quot;color: rgb(240 , 240 , 240) ; font-style: normal ; font-weight: 400 ; letter-spacing: normal ; text-indent: 0px ; text-transform: none ; word-spacing: 0px ; font-family: &amp;#34;helvetica&amp;#34; ; font-size: 15px ; text-align: center ; background-color: rgb(42 , 42 , 42) ; display: inline ; float: none&quot;&gt;o nó da esquerda. O nó da esquerda é folha e não possi espaços então será feta&lt;br&gt;uma quebra de nó em que o 100 sobe e será criado um novo nó para o 150. Como&amp;nbsp;&lt;br&gt;o nó que foi quebrado tem pai, esse pai tem uma posição livre e o valor qu subiu é menor que o valor já presente no nó pai, o ponteiro do centro passará a ser o ponteiro da direita, o valor da posição 1 irá para a posição 2, o valor que subiu será alocado na posição 1 e o nó do 150 será apontado pelo centro da raiz.&lt;br&gt;&lt;/span&gt;" style="text;whiteSpace=wrap;html=1;" vertex="1" parent="1">
                    <mxGeometry x="680" y="770" width="560" height="90" as="geometry"/>
                </mxCell>
                <mxCell id="246" value="" style="shape=singleArrow;whiteSpace=wrap;html=1;fontSize=15;strokeWidth=4;rotation=-210;" vertex="1" parent="1">
                    <mxGeometry x="577.5" y="895" width="70" height="30" as="geometry"/>
                </mxCell>
                <mxCell id="248" value="" style="shape=singleArrow;direction=west;whiteSpace=wrap;html=1;fontSize=15;strokeWidth=4;" vertex="1" parent="1">
                    <mxGeometry x="508" y="110" width="80" height="30" as="geometry"/>
                </mxCell>
                <mxCell id="249" value="" style="shape=singleArrow;direction=west;whiteSpace=wrap;html=1;fontSize=15;strokeWidth=4;" vertex="1" parent="1">
                    <mxGeometry x="500" y="275" width="80" height="30" as="geometry"/>
                </mxCell>
                <mxCell id="250" value="" style="shape=singleArrow;direction=west;whiteSpace=wrap;html=1;fontSize=15;strokeWidth=4;" vertex="1" parent="1">
                    <mxGeometry x="544" y="475" width="80" height="30" as="geometry"/>
                </mxCell>
                <mxCell id="251" value="" style="shape=singleArrow;direction=west;whiteSpace=wrap;html=1;fontSize=15;strokeWidth=4;" vertex="1" parent="1">
                    <mxGeometry x="566" y="695" width="80" height="30" as="geometry"/>
                </mxCell>
                <mxCell id="253" value="&lt;span style=&quot;color: rgb(240 , 240 , 240) ; font-family: &amp;#34;helvetica&amp;#34; ; font-size: 15px ; font-style: normal ; font-weight: 400 ; letter-spacing: normal ; text-align: center ; text-indent: 0px ; text-transform: none ; word-spacing: 0px ; background-color: rgb(42 , 42 , 42) ; display: inline ; float: none&quot;&gt;120- Inicia-se a inserção analisando os nós. O nó raiz não é folha&lt;/span&gt;&lt;span style=&quot;color: rgb(240 , 240 , 240) ; font-family: &amp;#34;helvetica&amp;#34; ; font-size: 15px ; font-style: normal ; font-weight: 400 ; letter-spacing: normal ; text-align: center ; text-indent: 0px ; text-transform: none ; word-spacing: 0px ; background-color: rgb(42 , 42 , 42) ; display: inline ; float: none&quot;&gt;&amp;nbsp;e 120 é maior q o valor na posição 1, então passasse para&amp;nbsp;&amp;nbsp;&lt;/span&gt;&lt;span style=&quot;color: rgb(240 , 240 , 240) ; font-family: &amp;#34;helvetica&amp;#34; ; font-size: 15px ; font-style: normal ; font-weight: 400 ; letter-spacing: normal ; text-align: center ; text-indent: 0px ; text-transform: none ; word-spacing: 0px ; background-color: rgb(42 , 42 , 42) ; display: inline ; float: none&quot;&gt;o nó do centro. O nó do centro é folha e tem espaço vazio, como 120 é menor&amp;nbsp;&lt;/span&gt;&lt;span style=&quot;color: rgb(240 , 240 , 240) ; font-family: &amp;#34;helvetica&amp;#34; ; font-size: 15px ; font-style: normal ; font-weight: 400 ; letter-spacing: normal ; text-align: center ; text-indent: 0px ; text-transform: none ; word-spacing: 0px ; background-color: rgb(42 , 42 , 42) ; display: inline ; float: none&quot;&gt;que o valor na info 1 ele será armazenado na info 1 e o valor da info1 irá para a info 2.&lt;/span&gt;" style="text;whiteSpace=wrap;html=1;" vertex="1" parent="1">
                    <mxGeometry x="1120" y="930" width="526" height="70" as="geometry"/>
                </mxCell>
                <mxCell id="254" value="" style="shape=singleArrow;direction=west;whiteSpace=wrap;html=1;fontSize=15;strokeWidth=4;" vertex="1" parent="1">
                    <mxGeometry x="1030" y="955" width="80" height="30" as="geometry"/>
                </mxCell>
            </root>
        </mxGraphModel>
    </diagram>
</mxfile>